# xmcd CD database file
#
# Track frame offsets:
#	150
#	20025
#	51845
#	75477
#	92575
#	108037
#	132947
#	162199
#	174713
#	206102
#	228338
#	249421
#
# Disc length: 3554 seconds
#
# Revision: 0
# Processed by: cddbd v1.5.2PL0 Copyright (c) Steve Scherf et al.
# Submitted via: CDex 1.51
#
DISCID=940de00c
DTITLE=VJC Quintet - Live In Studio
DYEAR=2013
DGENRE=Jazz
TTITLE0=Stolen Moments
TTITLE1=In Your Own Sweet Way
TTITLE2=Bye Bye Blackbird
TTITLE3=Nardis
TTITLE4=Seven Steps To Heaven
TTITLE5=Round Midnight
TTITLE6=Tin Tin Deo
TTITLE7=So Daco Samba
TTITLE8=Favela
TTITLE9=Corcovado
TTITLE10=Afro Blue
TTITLE11=Caravan
EXTD=YEAR: 2013
EXTT0=
EXTT1=
EXTT2=
EXTT3=
EXTT4=
EXTT5=
EXTT6=
EXTT7=
EXTT8=
EXTT9=
EXTT10=
EXTT11=
PLAYORDER=
